<mxfile host="65bd71144e" modified="2020-11-19T13:15:04.241Z" agent="5.0 (Windows NT 10.0; Win64; x64) AppleWebKit/537.36 (KHTML, like Gecko) Code/1.50.0 Chrome/83.0.4103.122 Electron/9.2.1 Safari/537.36" etag="au9iQJTYf17qC2o2apZ3" version="13.6.5">
    <diagram id="N-IPX6MsTA4C3S9pgTfz" name="第 1 页">
        <mxGraphModel dx="1129" dy="618" grid="1" gridSize="10" guides="1" tooltips="1" connect="1" arrows="1" fold="1" page="1" pageScale="1" pageWidth="827" pageHeight="1169" math="0" shadow="0">
            <root>
                <mxCell id="0"/>
                <mxCell id="1" parent="0"/>
                <mxCell id="vPQr02KSm4IEOW1bR6tz-3" value="" style="edgeStyle=orthogonalEdgeStyle;rounded=0;orthogonalLoop=1;jettySize=auto;html=1;curved=1;entryX=0.5;entryY=0;entryDx=0;entryDy=0;" parent="1" source="vPQr02KSm4IEOW1bR6tz-4" target="vPQr02KSm4IEOW1bR6tz-5" edge="1">
                    <mxGeometry relative="1" as="geometry">
                        <mxPoint x="130" y="260" as="targetPoint"/>
                    </mxGeometry>
                </mxCell>
                <mxCell id="2" value="游戏逻辑" style="rounded=1;whiteSpace=wrap;html=1;" parent="1" vertex="1">
                    <mxGeometry x="70" y="120" width="120" height="60" as="geometry"/>
                </mxCell>
                <mxCell id="vPQr02KSm4IEOW1bR6tz-5" value="是否空闲" style="rhombus;whiteSpace=wrap;html=1;" parent="1" vertex="1">
                    <mxGeometry x="90" y="260" width="80" height="80" as="geometry"/>
                </mxCell>
                <mxCell id="vPQr02KSm4IEOW1bR6tz-4" value="触发" style="text;html=1;strokeColor=none;fillColor=none;align=center;verticalAlign=middle;whiteSpace=wrap;rounded=0;" parent="1" vertex="1">
                    <mxGeometry x="110" y="210" width="40" height="20" as="geometry"/>
                </mxCell>
                <mxCell id="vPQr02KSm4IEOW1bR6tz-6" value="" style="edgeStyle=orthogonalEdgeStyle;rounded=0;orthogonalLoop=1;jettySize=auto;html=1;curved=1;" parent="1" source="2" target="vPQr02KSm4IEOW1bR6tz-4" edge="1">
                    <mxGeometry relative="1" as="geometry">
                        <mxPoint x="130" y="180" as="sourcePoint"/>
                        <mxPoint x="130" y="260" as="targetPoint"/>
                    </mxGeometry>
                </mxCell>
                <mxCell id="vPQr02KSm4IEOW1bR6tz-17" value="" style="group" parent="1" vertex="1" connectable="0">
                    <mxGeometry x="40" y="330" width="40" height="20" as="geometry"/>
                </mxCell>
                <mxCell id="vPQr02KSm4IEOW1bR6tz-11" style="edgeStyle=orthogonalEdgeStyle;rounded=0;orthogonalLoop=1;jettySize=auto;html=1;curved=1;exitX=0;exitY=0.5;exitDx=0;exitDy=0;entryX=0.5;entryY=1;entryDx=0;entryDy=0;" parent="vPQr02KSm4IEOW1bR6tz-17" source="vPQr02KSm4IEOW1bR6tz-5" target="vPQr02KSm4IEOW1bR6tz-5" edge="1">
                    <mxGeometry relative="1" as="geometry">
                        <mxPoint x="60" y="70" as="targetPoint"/>
                    </mxGeometry>
                </mxCell>
                <mxCell id="vPQr02KSm4IEOW1bR6tz-13" value="否" style="text;html=1;strokeColor=none;fillColor=none;align=center;verticalAlign=middle;whiteSpace=wrap;rounded=0;" parent="vPQr02KSm4IEOW1bR6tz-17" vertex="1">
                    <mxGeometry width="40" height="20" as="geometry"/>
                </mxCell>
                <mxCell id="vPQr02KSm4IEOW1bR6tz-28" value="" style="group" parent="1" vertex="1" connectable="0">
                    <mxGeometry x="180" y="270" width="50" height="30" as="geometry"/>
                </mxCell>
                <mxCell id="vPQr02KSm4IEOW1bR6tz-19" value="" style="group" parent="vPQr02KSm4IEOW1bR6tz-28" vertex="1" connectable="0">
                    <mxGeometry width="50" height="30" as="geometry"/>
                </mxCell>
                <mxCell id="vPQr02KSm4IEOW1bR6tz-20" style="edgeStyle=orthogonalEdgeStyle;rounded=0;orthogonalLoop=1;jettySize=auto;html=1;curved=1;exitX=0;exitY=0.5;exitDx=0;exitDy=0;entryX=0.5;entryY=1;entryDx=0;entryDy=0;" parent="vPQr02KSm4IEOW1bR6tz-19" edge="1">
                    <mxGeometry relative="1" as="geometry">
                        <mxPoint x="75" y="105" as="targetPoint"/>
                    </mxGeometry>
                </mxCell>
                <mxCell id="vPQr02KSm4IEOW1bR6tz-21" value="是" style="text;html=1;strokeColor=none;fillColor=none;align=center;verticalAlign=middle;whiteSpace=wrap;rounded=0;" parent="vPQr02KSm4IEOW1bR6tz-19" vertex="1">
                    <mxGeometry width="50" height="30" as="geometry"/>
                </mxCell>
                <mxCell id="vPQr02KSm4IEOW1bR6tz-45" style="edgeStyle=orthogonalEdgeStyle;curved=1;rounded=0;orthogonalLoop=1;jettySize=auto;html=1;" parent="1" source="vPQr02KSm4IEOW1bR6tz-29" edge="1">
                    <mxGeometry relative="1" as="geometry">
                        <mxPoint x="130" y="340" as="targetPoint"/>
                    </mxGeometry>
                </mxCell>
                <mxCell id="vPQr02KSm4IEOW1bR6tz-29" value="&lt;span&gt;判断交互次数&lt;br&gt;&amp;gt;n&lt;br&gt;&lt;/span&gt;" style="rhombus;whiteSpace=wrap;html=1;" parent="1" vertex="1">
                    <mxGeometry x="240" y="410" width="100" height="100" as="geometry"/>
                </mxCell>
                <mxCell id="vPQr02KSm4IEOW1bR6tz-35" value="" style="edgeStyle=orthogonalEdgeStyle;curved=1;rounded=0;orthogonalLoop=1;jettySize=auto;html=1;" parent="1" source="vPQr02KSm4IEOW1bR6tz-31" target="vPQr02KSm4IEOW1bR6tz-34" edge="1">
                    <mxGeometry relative="1" as="geometry"/>
                </mxCell>
                <mxCell id="vPQr02KSm4IEOW1bR6tz-31" value="显示指引&lt;br&gt;显示交互次数+1" style="whiteSpace=wrap;html=1;" parent="1" vertex="1">
                    <mxGeometry x="230" y="570" width="120" height="60" as="geometry"/>
                </mxCell>
                <mxCell id="vPQr02KSm4IEOW1bR6tz-38" value="" style="edgeStyle=orthogonalEdgeStyle;curved=1;rounded=0;orthogonalLoop=1;jettySize=auto;html=1;" parent="1" source="vPQr02KSm4IEOW1bR6tz-34" target="vPQr02KSm4IEOW1bR6tz-37" edge="1">
                    <mxGeometry relative="1" as="geometry"/>
                </mxCell>
                <mxCell id="vPQr02KSm4IEOW1bR6tz-34" value="等待交互完成" style="ellipse;whiteSpace=wrap;html=1;" parent="1" vertex="1">
                    <mxGeometry x="230" y="700" width="120" height="80" as="geometry"/>
                </mxCell>
                <mxCell id="vPQr02KSm4IEOW1bR6tz-44" style="edgeStyle=orthogonalEdgeStyle;curved=1;rounded=0;orthogonalLoop=1;jettySize=auto;html=1;entryX=0.5;entryY=1;entryDx=0;entryDy=0;" parent="1" source="vPQr02KSm4IEOW1bR6tz-37" target="vPQr02KSm4IEOW1bR6tz-5" edge="1">
                    <mxGeometry relative="1" as="geometry"/>
                </mxCell>
                <mxCell id="vPQr02KSm4IEOW1bR6tz-37" value="隐藏指引类型&lt;br&gt;清理事件监听" style="whiteSpace=wrap;html=1;" parent="1" vertex="1">
                    <mxGeometry x="230" y="870" width="120" height="60" as="geometry"/>
                </mxCell>
                <mxCell id="vPQr02KSm4IEOW1bR6tz-39" value="交互完成" style="text;html=1;align=center;verticalAlign=middle;resizable=0;points=[];autosize=1;" parent="1" vertex="1">
                    <mxGeometry x="290" y="810" width="60" height="20" as="geometry"/>
                </mxCell>
                <mxCell id="vPQr02KSm4IEOW1bR6tz-41" value="" style="edgeStyle=orthogonalEdgeStyle;curved=1;rounded=0;orthogonalLoop=1;jettySize=auto;html=1;" parent="1" source="vPQr02KSm4IEOW1bR6tz-40" target="vPQr02KSm4IEOW1bR6tz-39" edge="1">
                    <mxGeometry relative="1" as="geometry"/>
                </mxCell>
                <mxCell id="vPQr02KSm4IEOW1bR6tz-40" value="玩家" style="shape=umlActor;verticalLabelPosition=bottom;verticalAlign=top;html=1;outlineConnect=0;" parent="1" vertex="1">
                    <mxGeometry x="190" y="780" width="30" height="60" as="geometry"/>
                </mxCell>
                <mxCell id="vPQr02KSm4IEOW1bR6tz-47" value="是否有&lt;br&gt;下一个指引&lt;br&gt;任务" style="rhombus;whiteSpace=wrap;html=1;" parent="1" vertex="1">
                    <mxGeometry x="245" y="255" width="90" height="90" as="geometry"/>
                </mxCell>
                <mxCell id="vPQr02KSm4IEOW1bR6tz-8" value="" style="edgeStyle=orthogonalEdgeStyle;curved=1;rounded=0;orthogonalLoop=1;jettySize=auto;html=1;entryX=0;entryY=0.5;entryDx=0;entryDy=0;" parent="1" source="vPQr02KSm4IEOW1bR6tz-5" target="vPQr02KSm4IEOW1bR6tz-47" edge="1">
                    <mxGeometry relative="1" as="geometry">
                        <mxPoint x="267.5" y="304" as="targetPoint"/>
                    </mxGeometry>
                </mxCell>
                <mxCell id="vPQr02KSm4IEOW1bR6tz-49" value="" style="group" parent="1" vertex="1" connectable="0">
                    <mxGeometry x="300" y="520" width="30" height="20" as="geometry"/>
                </mxCell>
                <mxCell id="vPQr02KSm4IEOW1bR6tz-32" value="" style="edgeStyle=orthogonalEdgeStyle;curved=1;rounded=0;orthogonalLoop=1;jettySize=auto;html=1;" parent="vPQr02KSm4IEOW1bR6tz-49" source="vPQr02KSm4IEOW1bR6tz-29" target="vPQr02KSm4IEOW1bR6tz-31" edge="1">
                    <mxGeometry relative="1" as="geometry"/>
                </mxCell>
                <mxCell id="vPQr02KSm4IEOW1bR6tz-33" value="否" style="text;html=1;align=center;verticalAlign=middle;resizable=0;points=[];autosize=1;" parent="vPQr02KSm4IEOW1bR6tz-49" vertex="1">
                    <mxGeometry width="30" height="20" as="geometry"/>
                </mxCell>
                <mxCell id="vPQr02KSm4IEOW1bR6tz-53" value="" style="group" parent="1" vertex="1" connectable="0">
                    <mxGeometry x="300" y="360" width="30" height="20" as="geometry"/>
                </mxCell>
                <mxCell id="vPQr02KSm4IEOW1bR6tz-30" value="" style="edgeStyle=orthogonalEdgeStyle;curved=1;rounded=0;orthogonalLoop=1;jettySize=auto;html=1;" parent="vPQr02KSm4IEOW1bR6tz-53" source="vPQr02KSm4IEOW1bR6tz-47" target="vPQr02KSm4IEOW1bR6tz-29" edge="1">
                    <mxGeometry relative="1" as="geometry">
                        <mxPoint x="-10" y="-30" as="sourcePoint"/>
                    </mxGeometry>
                </mxCell>
                <mxCell id="vPQr02KSm4IEOW1bR6tz-50" value="" style="group" parent="vPQr02KSm4IEOW1bR6tz-53" vertex="1" connectable="0">
                    <mxGeometry width="30" height="20" as="geometry"/>
                </mxCell>
                <mxCell id="vPQr02KSm4IEOW1bR6tz-51" value="" style="edgeStyle=orthogonalEdgeStyle;curved=1;rounded=0;orthogonalLoop=1;jettySize=auto;html=1;" parent="vPQr02KSm4IEOW1bR6tz-50" edge="1">
                    <mxGeometry relative="1" as="geometry"/>
                </mxCell>
                <mxCell id="vPQr02KSm4IEOW1bR6tz-52" value="是" style="text;html=1;align=center;verticalAlign=middle;resizable=0;points=[];autosize=1;" parent="vPQr02KSm4IEOW1bR6tz-50" vertex="1">
                    <mxGeometry width="30" height="20" as="geometry"/>
                </mxCell>
                <mxCell id="vPQr02KSm4IEOW1bR6tz-56" value="结束指引" style="shape=trapezoid;perimeter=trapezoidPerimeter;whiteSpace=wrap;html=1;fixedSize=1;" parent="1" vertex="1">
                    <mxGeometry x="400" y="270" width="120" height="60" as="geometry"/>
                </mxCell>
                <mxCell id="vPQr02KSm4IEOW1bR6tz-63" value="" style="group" parent="1" vertex="1" connectable="0">
                    <mxGeometry x="350" y="270" width="30" height="20" as="geometry"/>
                </mxCell>
                <mxCell id="vPQr02KSm4IEOW1bR6tz-57" value="" style="edgeStyle=none;rounded=0;orthogonalLoop=1;jettySize=auto;html=1;" parent="vPQr02KSm4IEOW1bR6tz-63" source="vPQr02KSm4IEOW1bR6tz-47" target="vPQr02KSm4IEOW1bR6tz-56" edge="1">
                    <mxGeometry relative="1" as="geometry"/>
                </mxCell>
                <mxCell id="vPQr02KSm4IEOW1bR6tz-58" value="" style="group" parent="vPQr02KSm4IEOW1bR6tz-63" vertex="1" connectable="0">
                    <mxGeometry width="30" height="20" as="geometry"/>
                </mxCell>
                <mxCell id="vPQr02KSm4IEOW1bR6tz-59" value="" style="edgeStyle=orthogonalEdgeStyle;curved=1;rounded=0;orthogonalLoop=1;jettySize=auto;html=1;" parent="vPQr02KSm4IEOW1bR6tz-58" edge="1">
                    <mxGeometry relative="1" as="geometry">
                        <mxPoint x="-10" y="-30" as="sourcePoint"/>
                    </mxGeometry>
                </mxCell>
                <mxCell id="vPQr02KSm4IEOW1bR6tz-60" value="" style="group" parent="vPQr02KSm4IEOW1bR6tz-58" vertex="1" connectable="0">
                    <mxGeometry width="30" height="20" as="geometry"/>
                </mxCell>
                <mxCell id="vPQr02KSm4IEOW1bR6tz-61" value="" style="edgeStyle=orthogonalEdgeStyle;curved=1;rounded=0;orthogonalLoop=1;jettySize=auto;html=1;" parent="vPQr02KSm4IEOW1bR6tz-60" edge="1">
                    <mxGeometry relative="1" as="geometry"/>
                </mxCell>
                <mxCell id="vPQr02KSm4IEOW1bR6tz-62" value="否" style="text;html=1;align=center;verticalAlign=middle;resizable=0;points=[];autosize=1;" parent="vPQr02KSm4IEOW1bR6tz-60" vertex="1">
                    <mxGeometry width="30" height="20" as="geometry"/>
                </mxCell>
                <mxCell id="3" value="&lt;p style=&quot;margin: 0px ; margin-top: 4px ; text-align: center&quot;&gt;&lt;i&gt;&amp;lt;&amp;lt;Interface&amp;gt;&amp;gt;&lt;/i&gt;&lt;br&gt;&lt;b&gt;IGuideHandler&lt;/b&gt;&lt;/p&gt;&lt;hr size=&quot;1&quot;&gt;&lt;p style=&quot;margin: 0px ; margin-left: 4px&quot;&gt;+ field1: Type&lt;br&gt;+ field2: Type&lt;/p&gt;&lt;hr size=&quot;1&quot;&gt;&lt;p style=&quot;margin: 0px ; margin-left: 4px&quot;&gt;+ onShow(cfg:IGuidCfg,endCb:VoidFunction): void&lt;br&gt;+ onHide(): void&lt;/p&gt;" style="verticalAlign=top;align=left;overflow=fill;fontSize=12;fontFamily=Helvetica;html=1;" vertex="1" parent="1">
                    <mxGeometry x="440" y="530" width="330" height="140" as="geometry"/>
                </mxCell>
            </root>
        </mxGraphModel>
    </diagram>
</mxfile>